<mxfile host="65bd71144e">
    <diagram id="fxQHdlaDq5yp2H_h8bHt" name="Page-1">
        <mxGraphModel dx="608" dy="351" grid="0" gridSize="10" guides="1" tooltips="1" connect="1" arrows="1" fold="1" page="1" pageScale="1" pageWidth="850" pageHeight="1100" background="#1A1A1A" math="0" shadow="0">
            <root>
                <mxCell id="0"/>
                <mxCell id="1" parent="0"/>
                <mxCell id="2" value="" style="rounded=0;whiteSpace=wrap;html=1;absoluteArcSize=1;arcSize=14;strokeWidth=2;movable=1;resizable=1;rotatable=1;deletable=1;editable=1;connectable=1;" vertex="1" parent="1">
                    <mxGeometry x="487" y="57" width="102" height="101" as="geometry"/>
                </mxCell>
                <mxCell id="3" value="" style="strokeWidth=2;html=1;shape=mxgraph.flowchart.start_2;whiteSpace=wrap;fillColor=#0050ef;fontColor=#ffffff;strokeColor=#001DBC;movable=1;resizable=1;rotatable=1;deletable=1;editable=1;connectable=1;" vertex="1" parent="1">
                    <mxGeometry x="488.5" y="59" width="100" height="97" as="geometry"/>
                </mxCell>
                <mxCell id="4" value="&lt;b&gt;&lt;font color=&quot;#00cc00&quot; style=&quot;font-size: 21px;&quot;&gt;A&lt;/font&gt;&lt;/b&gt;" style="text;html=1;align=center;verticalAlign=middle;resizable=1;points=[];autosize=1;strokeColor=none;fillColor=none;movable=1;rotatable=1;deletable=1;editable=1;connectable=1;" vertex="1" parent="1">
                    <mxGeometry x="519" y="24" width="33" height="37" as="geometry"/>
                </mxCell>
                <mxCell id="7" value="" style="edgeStyle=none;html=1;fontSize=15;fontColor=#FFFFFF;strokeWidth=2;fillColor=#1ba1e2;strokeColor=#006EAF;" edge="1" parent="1" source="5" target="6">
                    <mxGeometry relative="1" as="geometry"/>
                </mxCell>
                <mxCell id="5" value="&lt;font style=&quot;font-size: 15px;&quot; color=&quot;#ffffff&quot;&gt;Start&lt;/font&gt;" style="strokeWidth=2;html=1;shape=mxgraph.flowchart.start_1;whiteSpace=wrap;rounded=0;fontSize=21;fontColor=#ffffff;fillColor=#1ba1e2;strokeColor=#006EAF;" vertex="1" parent="1">
                    <mxGeometry x="267" y="23" width="100" height="38" as="geometry"/>
                </mxCell>
                <mxCell id="9" value="" style="edgeStyle=none;html=1;strokeWidth=2;fontSize=15;fontColor=#FFFFFF;fillColor=#1ba1e2;strokeColor=#006EAF;" edge="1" parent="1" source="6" target="8">
                    <mxGeometry relative="1" as="geometry"/>
                </mxCell>
                <mxCell id="6" value="Read A" style="shape=parallelogram;html=1;strokeWidth=2;perimeter=parallelogramPerimeter;whiteSpace=wrap;rounded=1;arcSize=12;size=0.23;fontSize=15;fontColor=#ffffff;fillColor=#1ba1e2;strokeColor=#006EAF;" vertex="1" parent="1">
                    <mxGeometry x="267" y="94" width="100" height="37" as="geometry"/>
                </mxCell>
                <mxCell id="11" value="" style="edgeStyle=none;html=1;strokeWidth=2;fontSize=15;fontColor=#FFFFFF;fillColor=#1ba1e2;strokeColor=#006EAF;" edge="1" parent="1" source="8" target="10">
                    <mxGeometry relative="1" as="geometry"/>
                </mxCell>
                <mxCell id="8" value="Pi = 3.14&lt;br&gt;Area = (3.14 * A *A) / 4" style="whiteSpace=wrap;html=1;fontSize=15;fillColor=#1ba1e2;strokeColor=#006EAF;fontColor=#ffffff;strokeWidth=2;rounded=1;arcSize=12;" vertex="1" parent="1">
                    <mxGeometry x="223.5" y="158" width="187" height="60" as="geometry"/>
                </mxCell>
                <mxCell id="13" value="" style="edgeStyle=none;html=1;strokeWidth=2;fontSize=15;fontColor=#FFFFFF;fillColor=#1ba1e2;strokeColor=#006EAF;" edge="1" parent="1" source="10" target="12">
                    <mxGeometry relative="1" as="geometry"/>
                </mxCell>
                <mxCell id="10" value="Print Area" style="shape=parallelogram;html=1;strokeWidth=2;perimeter=parallelogramPerimeter;whiteSpace=wrap;rounded=1;arcSize=12;size=0.23;fontSize=15;fontColor=#ffffff;fillColor=#1ba1e2;strokeColor=#006EAF;" vertex="1" parent="1">
                    <mxGeometry x="261" y="252" width="112" height="37" as="geometry"/>
                </mxCell>
                <mxCell id="12" value="&lt;font style=&quot;font-size: 15px;&quot; color=&quot;#ffffff&quot;&gt;End&lt;/font&gt;" style="strokeWidth=2;html=1;shape=mxgraph.flowchart.start_1;whiteSpace=wrap;rounded=0;fontSize=21;fontColor=#ffffff;fillColor=#1ba1e2;strokeColor=#006EAF;" vertex="1" parent="1">
                    <mxGeometry x="270.5" y="323" width="100" height="38" as="geometry"/>
                </mxCell>
            </root>
        </mxGraphModel>
    </diagram>
</mxfile>